<?xml version="1.0" standalone="no"?>
<!DOCTYPE svg PUBLIC "-//W3C//DTD SVG 20010904//EN"
 "http://www.w3.org/TR/2001/REC-SVG-20010904/DTD/svg10.dtd">
<svg version="1.0" xmlns="http://www.w3.org/2000/svg"
 width="640.000000pt" height="640.000000pt" viewBox="0 0 640.000000 640.000000"
 preserveAspectRatio="xMidYMid meet">

<g transform="translate(0.000000,640.000000) scale(0.100000,-0.100000)"
fill="#000000" stroke="none">
<path d="M0 3200 l0 -3200 3200 0 3200 0 0 3200 0 3200 -3200 0 -3200 0 0
-3200z m3287 2539 c83 -40 129 -137 104 -221 -29 -98 -108 -154 -207 -146
-119 10 -204 125 -175 236 34 126 163 187 278 131z m-437 -85 c-6 -14 -10 -46
-10 -72 l0 -47 -148 -36 c-173 -42 -306 -91 -454 -164 -104 -52 -108 -53 -119
-33 -6 11 -26 37 -46 58 l-34 39 110 56 c135 67 275 123 400 160 101 29 252
63 288 64 20 1 21 -2 13 -25z m925 -19 c188 -48 368 -118 523 -203 l62 -34
-34 -38 c-19 -21 -39 -47 -45 -58 -9 -18 -16 -16 -128 39 -129 64 -368 146
-505 174 l-88 18 0 51 c0 28 -3 61 -7 74 -6 23 -5 23 43 17 27 -4 108 -22 179
-40z m-1878 -342 c92 -47 130 -171 81 -263 -34 -63 -100 -103 -171 -103 -116
0 -197 81 -197 198 0 146 154 236 287 168z m2795 0 c17 -10 45 -35 61 -56 42
-51 50 -143 18 -205 -49 -95 -167 -134 -261 -86 -57 29 -110 111 -110 171 0
81 59 166 130 191 45 15 124 7 162 -15z m-1701 -17 c27 -19 58 -38 69 -41 18
-6 20 -16 20 -109 l0 -103 -107 -17 c-174 -29 -341 -89 -493 -179 l-46 -27
-109 101 c-61 56 -123 114 -139 129 l-29 28 89 45 c169 84 376 152 569 186 61
11 113 20 118 20 4 1 30 -14 58 -33z m589 13 c179 -29 371 -91 549 -175 l114
-54 -89 -83 c-49 -46 -112 -104 -141 -131 l-52 -48 -28 20 c-48 33 -184 98
-273 130 -81 28 -190 53 -292 67 l-48 6 0 103 0 104 30 12 c16 7 46 25 67 41
28 21 46 27 68 24 17 -3 59 -10 95 -16z m-2027 -428 c9 -7 17 -18 17 -23 0 -5
-30 -43 -66 -86 -145 -169 -302 -441 -387 -672 -48 -129 -104 -360 -122 -503
-15 -115 -21 -417 -9 -417 4 0 59 51 124 113 270 261 622 526 925 699 275 156
553 260 820 304 142 24 480 24 635 1 405 -62 721 -190 1075 -438 353 -246 565
-418 733 -593 l93 -97 -49 -57 c-74 -86 -335 -341 -437 -428 -612 -521 -1224
-776 -1803 -750 -442 19 -795 129 -1137 354 -218 143 -314 225 -699 599 -154
149 -282 270 -284 268 -2 -2 1 -52 8 -112 49 -458 246 -913 549 -1263 l56 -65
-52 -52 -52 -52 -81 97 c-305 365 -487 780 -556 1267 -21 146 -23 466 -5 610
39 306 124 586 257 846 70 138 211 349 304 457 l71 83 28 -38 c15 -21 35 -44
44 -52z m3533 -112 c239 -322 396 -709 461 -1136 20 -134 23 -497 5 -633 -63
-478 -240 -897 -532 -1259 -116 -143 -106 -139 -163 -75 l-48 53 70 81 c218
252 389 585 475 925 64 249 87 593 57 840 -55 445 -240 880 -515 1209 -36 43
-66 81 -66 84 0 3 18 24 40 48 22 24 40 49 40 56 1 19 93 -83 176 -193z
m-2006 -58 l0 -168 -92 -7 c-51 -3 -146 -14 -210 -22 l-117 -17 -91 83 -90 83
52 35 c135 91 374 176 511 181 l37 1 0 -169z m457 133 c48 -14 119 -38 158
-55 84 -35 210 -110 210 -125 0 -6 -37 -46 -83 -89 l-83 -78 -117 16 c-64 9
-159 19 -209 23 l-93 7 0 170 0 170 65 -7 c35 -4 104 -18 152 -32z m-1432 -54
c4 -6 -37 -10 -117 -9 -77 1 -114 4 -98 9 37 12 208 12 215 0z m2405 0 c16 -5
-21 -8 -98 -9 -80 -1 -121 3 -117 9 7 12 178 12 215 0z m-2326 -81 c6 -5 -88
-9 -231 -9 -212 0 -265 5 -248 21 8 9 470 -3 479 -12z m2504 4 c3 -10 -50 -13
-244 -13 -162 0 -245 3 -238 10 5 5 97 11 209 13 266 4 268 4 273 -10z m-2424
-71 c6 -10 -193 -22 -360 -22 -87 0 -114 3 -124 15 -11 13 16 15 233 15 135 0
248 -4 251 -8z m2350 -7 c-22 -16 -134 -19 -358 -8 -213 10 -139 23 133 23
217 0 243 -2 225 -15z m-2847 -211 c93 -86 169 -159 171 -163 1 -3 -26 -22
-60 -41 -182 -99 -332 -212 -481 -364 l-109 -109 7 69 c19 189 70 371 150 529
53 106 134 235 147 235 4 0 83 -70 175 -156z m583 135 c8 -5 -94 -9 -231 -9
-206 0 -249 2 -259 15 -11 13 17 14 231 8 134 -3 251 -9 259 -14z m2190 6
c-10 -13 -52 -15 -258 -15 -160 0 -243 3 -236 10 5 5 86 11 179 13 94 1 205 4
249 5 69 2 77 0 66 -13z m304 -32 c45 -62 139 -241 172 -329 36 -96 72 -253
82 -359 5 -49 8 -92 6 -93 -1 -2 -19 16 -40 40 -136 155 -371 340 -547 430
-32 16 -57 33 -55 38 4 13 331 319 340 319 4 1 23 -20 42 -46z m-2414 -48 c11
-13 -16 -15 -233 -15 -205 0 -247 2 -257 15 -11 13 16 15 233 15 205 0 247 -2
257 -15z m2020 0 c-10 -13 -52 -15 -257 -15 -217 0 -244 2 -233 15 10 13 52
15 257 15 217 0 244 -2 233 -15z m-2133 -70 c-21 -8 -91 -17 -155 -21 -111 -6
-118 -5 -136 15 l-19 21 174 -1 c161 0 171 -1 136 -14z m2054 -5 c-27 -23 -78
-25 -209 -10 -154 17 -130 29 58 29 l175 0 -24 -19z m-2248 -67 c-7 -2 -19 -2
-25 0 -7 3 -2 5 12 5 14 0 19 -2 13 -5z m2174 1 c-3 -3 -12 -4 -19 -1 -8 3 -5
6 6 6 11 1 17 -2 13 -5z m-2763 -1987 c77 -89 186 -185 294 -260 39 -28 72
-54 72 -57 0 -9 -149 -155 -153 -149 -2 2 -24 29 -49 59 -119 144 -221 333
-273 510 l-14 45 27 -35 c15 -19 58 -70 96 -113z m3425 56 c-56 -167 -168
-364 -272 -478 l-43 -48 -69 73 c-39 39 -70 76 -70 80 0 5 32 31 70 58 115 81
242 199 329 303 44 55 82 99 83 99 1 0 -11 -39 -28 -87z m-2869 -483 c11 -7 7
-10 -18 -10 -20 0 -31 4 -27 10 8 13 26 13 45 0z m2265 0 c4 -6 -7 -10 -27
-10 -25 0 -29 3 -18 10 19 13 37 13 45 0z m-2115 -70 c10 -7 -32 -10 -128 -10
-93 0 -141 4 -137 10 8 13 245 13 265 0z m2185 0 c4 -6 -44 -10 -137 -10 -96
0 -138 3 -128 10 20 13 257 13 265 0z m-2235 -75 c-10 -12 -41 -15 -157 -15
-125 0 -142 2 -131 15 10 11 44 14 157 15 126 0 142 -2 131 -15z m2304 0 c5
-13 -14 -15 -133 -15 -111 0 -141 3 -151 15 -11 13 5 15 133 15 120 0 146 -3
151 -15z m-1969 -15 c102 -30 316 -68 420 -75 151 -10 135 14 135 -200 l0
-185 -27 -11 c-93 -36 -508 65 -750 182 l-104 50 27 32 c59 71 210 226 219
227 6 0 42 -9 80 -20z m1524 -72 c48 -51 102 -110 120 -130 l32 -37 -103 -49
c-188 -91 -417 -158 -617 -183 -80 -10 -104 -10 -130 0 l-31 13 0 184 c0 213
-16 189 135 199 108 8 268 36 390 69 50 13 96 24 103 25 7 1 52 -41 101 -91z
m-1935 12 c-14 -14 -82 -16 -96 -2 -9 9 1 12 47 12 37 0 56 -3 49 -10z m2271
0 c-8 -13 -85 -13 -105 0 -11 7 4 10 48 10 40 0 61 -4 57 -10z m-2508 -111
c98 -37 149 -166 104 -264 -63 -137 -239 -153 -335 -32 -28 35 -31 46 -31 111
0 62 4 78 27 113 46 70 154 103 235 72z m2811 -10 c62 -30 102 -95 102 -165 0
-90 -36 -149 -115 -185 -154 -71 -322 86 -261 244 42 111 165 158 274 106z
m-2273 -428 c109 -43 241 -82 350 -104 l70 -14 5 -75 5 -75 -75 14 c-112 21
-216 49 -331 88 -115 40 -369 159 -369 173 0 5 8 16 19 26 10 9 26 34 35 55
l18 38 86 -44 c48 -24 132 -61 187 -82z m1909 20 c15 -12 11 -17 -36 -44 -143
-82 -410 -178 -611 -220 l-118 -25 3 76 3 75 90 19 c168 34 437 131 560 201
l40 23 27 -46 c14 -25 33 -52 42 -59z m-1014 -45 c44 -29 90 -109 90 -156 0
-148 -159 -247 -290 -180 -126 64 -141 246 -27 330 65 49 159 51 227 6z"/>
<path d="M2940 4040 c-299 -29 -689 -210 -1123 -520 -135 -96 -350 -266 -426
-337 l-52 -48 121 -109 c166 -149 322 -282 417 -353 444 -339 881 -496 1378
-497 137 0 189 4 271 22 437 94 944 399 1416 850 l91 88 -37 42 c-150 166
-630 516 -876 638 -350 174 -803 260 -1180 224z m755 -105 c112 -30 261 -133
340 -236 22 -29 51 -64 65 -78 13 -14 25 -33 25 -41 0 -8 14 -17 34 -21 18 -4
40 -14 49 -23 15 -15 13 -16 -22 -16 -62 0 -38 -24 30 -30 52 -5 104 -25 104
-40 0 -3 -32 -5 -70 -5 -57 0 -70 -3 -68 -15 3 -12 23 -16 98 -18 76 -2 100
-7 120 -22 l25 -20 -112 0 c-62 0 -113 -2 -113 -4 0 -2 3 -11 6 -20 5 -14 28
-16 144 -16 110 0 140 -3 150 -15 11 -13 -5 -15 -134 -15 -139 0 -146 -1 -146
-20 0 -19 7 -20 178 -20 168 0 180 -1 198 -21 10 -11 14 -20 9 -19 -6 2 -92 2
-192 1 -176 -1 -183 -2 -183 -21 0 -19 7 -20 223 -20 179 -1 226 -3 241 -15
18 -13 -7 -15 -222 -15 -229 0 -242 -1 -242 -19 0 -16 11 -19 83 -24 45 -4
153 -7 240 -7 103 0 156 -3 152 -10 -4 -6 -63 -10 -143 -10 -75 0 -181 -3
-234 -7 -86 -5 -98 -8 -98 -25 0 -17 12 -18 196 -18 172 0 195 -2 184 -15 -10
-12 -49 -15 -199 -17 -184 -3 -186 -3 -189 -25 l-3 -23 156 0 c102 0 154 -3
150 -10 -4 -6 -67 -10 -155 -10 -137 0 -150 -2 -160 -19 -5 -11 -10 -22 -10
-25 0 -3 55 -6 121 -6 107 0 120 -2 109 -15 -10 -12 -37 -15 -126 -15 -63 0
-114 -4 -114 -9 0 -5 -3 -16 -6 -25 -5 -14 6 -16 81 -16 55 0 84 -4 80 -10 -3
-5 -44 -10 -90 -10 -73 0 -86 -3 -95 -19 -17 -33 -12 -36 47 -32 52 3 56 2 44
-13 -9 -11 -30 -16 -65 -16 l-51 0 -38 -65 c-112 -192 -311 -345 -528 -405
-145 -40 -261 -18 -389 72 l-75 53 95 7 c364 27 638 233 737 554 14 45 18 92
18 199 0 127 -3 147 -27 213 -15 41 -42 99 -60 130 -46 80 -198 228 -290 285
-71 45 -228 116 -255 117 -65 1 87 65 189 80 84 12 120 11 183 -5z m-346 -210
c154 -37 312 -155 394 -295 169 -290 80 -668 -200 -851 -317 -207 -746 -91
-914 246 -81 164 -89 304 -29 505 10 36 24 85 30 110 19 75 69 133 147 171 37
18 100 48 140 67 40 19 96 40 125 48 73 17 230 17 307 -1z m-1074 -124 c-3 -6
-11 -11 -17 -11 -6 0 -6 6 2 15 14 17 26 13 15 -4z m-25 -61 c-8 -16 -21 -20
-58 -20 l-47 0 30 20 c17 11 43 20 58 20 25 0 27 -2 17 -20z m-20 -54 c0 -30
-16 -36 -92 -36 l-80 0 23 20 c18 14 39 19 87 20 34 0 62 -2 62 -4z m-27 -96
c-5 -19 -14 -20 -127 -20 l-121 0 25 20 c21 16 41 20 127 20 96 0 101 -1 96
-20z m-16 -75 c-5 -13 -31 -15 -163 -15 -137 0 -155 2 -144 15 9 11 44 15 159
17 80 2 148 2 150 1 2 -1 1 -9 -2 -18z m-9 -72 c-3 -15 -17 -19 -88 -21 -47
-2 -136 0 -198 3 -95 6 -111 9 -101 21 9 11 51 14 201 14 175 0 189 -1 186
-17z m-8 -78 c0 -13 -35 -15 -252 -15 -225 1 -251 2 -234 15 30 22 486 22 486
0z m0 -72 c0 -17 -17 -18 -237 -15 -131 1 -245 6 -253 10 -8 4 98 9 235 12
138 3 251 7 253 8 1 1 2 -6 2 -15z m0 -78 c0 -13 -28 -15 -194 -15 -160 0
-196 3 -206 15 -11 13 12 15 194 15 176 0 206 -2 206 -15z m10 -75 c0 -6 -60
-10 -159 -10 -96 0 -162 4 -166 10 -4 7 52 10 159 10 104 0 166 -4 166 -10z
m14 -75 c5 -13 -12 -15 -114 -15 -65 0 -121 4 -125 9 -7 13 30 18 141 20 73 1
93 -2 98 -14z m21 -75 c4 -6 -26 -10 -84 -10 -49 0 -93 5 -96 10 -4 6 26 10
84 10 49 0 93 -4 96 -10z m25 -81 c0 -6 -20 -9 -47 -8 -73 4 -84 13 -23 19 60
6 70 4 70 -11z"/>
<path d="M3106 3542 c-3 -5 5 -29 17 -53 30 -59 31 -176 3 -233 -23 -46 -74
-99 -116 -121 -64 -33 -162 -37 -234 -9 -17 6 -18 3 -11 -37 11 -71 60 -164
113 -218 158 -158 402 -158 561 0 185 185 144 491 -83 624 -71 42 -234 72
-250 47z"/>
</g>
</svg>
